<?xml version="1.0" encoding="UTF-8"?>
<svg width="40px" height="42px" viewBox="0 0 40 42" version="1.1" xmlns="http://www.w3.org/2000/svg" xmlns:xlink="http://www.w3.org/1999/xlink">
    <title>F92BAF56-12AC-42C7-8A11-E71284F2C46F@1.5x</title>
    <g id="Screens" stroke="none" stroke-width="1" fill="none" fill-rule="evenodd">
        <g id="Splash" transform="translate(-168.000000, -581.000000)" fill="#69D7C7">
            <path d="M182.590037,584.535383 C180.365937,585.154883 178.270737,586.189783 176.450037,587.571083 C174.633137,588.955783 173.075137,590.666083 171.906837,592.603683 C171.320137,593.570283 170.825037,594.588583 170.429737,595.641583 C170.037737,596.695783 169.749737,597.784883 169.564237,598.887883 C169.379137,599.991283 169.298637,601.108983 169.321537,602.222483 C169.348437,603.336183 169.475637,604.443683 169.706137,605.526183 C170.164837,607.691883 171.038037,609.754883 172.255937,611.575783 C173.471937,613.398083 175.029337,614.977883 176.811537,616.211583 C178.593137,617.445783 180.597337,618.337383 182.686637,618.813483 C184.774037,619.292783 186.945437,619.364683 189.042337,619.050883 C191.138937,618.737483 193.159337,618.023583 194.968437,616.964383 C196.779237,615.907983 198.374537,614.505683 199.653037,612.872883 C200.932837,611.240383 201.892137,609.375383 202.467637,607.411183 C203.045937,605.447583 203.237837,603.384883 203.057437,601.362083 C202.881237,599.341083 202.308737,597.376583 201.401437,595.593883 C200.495337,593.810383 199.251237,592.210083 197.766637,590.899883 C196.282937,589.587983 194.560237,588.567983 192.723637,587.907383 C190.886737,587.244283 188.939237,586.942983 187.001437,587.001283 C185.344537,587.051183 183.960937,585.748583 183.911137,584.091683 C183.861237,582.434883 185.163837,581.051283 186.820737,581.001383 C186.872137,581 186.923437,580.999583 186.974437,581.000583 L187.001437,581.001283 C189.679637,581.066583 192.346337,581.635783 194.798537,582.679083 C197.252437,583.718983 199.489637,585.224483 201.365237,587.077183 C203.242437,588.928583 204.759537,591.127383 205.814437,593.522383 C206.871237,595.915783 207.465337,598.504683 207.549437,601.092983 C207.638637,603.676883 207.248337,606.272683 206.387637,608.695583 C205.530337,611.118983 204.209637,613.361483 202.533637,615.273983 C200.858437,617.187483 198.830337,618.775783 196.585937,619.926583 C194.343637,621.080483 191.888037,621.795383 189.402137,622.029183 C186.917737,622.263683 184.403937,622.037883 182.023337,621.353283 C179.642837,620.671983 177.412237,619.525683 175.477937,618.023783 C173.542337,616.521983 171.903337,614.661083 170.667837,612.572783 C169.430237,610.485683 168.600237,608.170783 168.230637,605.796283 C168.044637,604.609183 167.972937,603.408183 168.009037,602.213983 C168.049137,601.019883 168.200237,599.831683 168.460437,598.670783 C168.721037,597.509883 169.088337,596.375683 169.560737,595.289883 C170.036137,594.205283 170.612237,593.168683 171.276937,592.196483 C172.601537,590.247383 174.303937,588.576483 176.231637,587.266183 C178.163637,585.958883 180.336237,585.033383 182.590037,584.535383" id="Fill-1"></path>
        </g>
    </g>
</svg>