<?xml version="1.0" encoding="UTF-8"?>
<svg width="198px" height="48px" viewBox="0 0 198 48" version="1.1" xmlns="http://www.w3.org/2000/svg" xmlns:xlink="http://www.w3.org/1999/xlink">
    <title>8478F96D-D78A-4668-A0B2-F63CDC64C0C9@1.5x</title>
    <g id="Screens" stroke="none" stroke-width="1" fill="none" fill-rule="evenodd">
        <g id="Splash" transform="translate(-89.000000, -297.000000)" fill-rule="nonzero">
            <g id="Group-31" transform="translate(89.000000, 297.000000)">
                <path d="M22.6131718,2.07916632 C25.9789979,2.07916632 28.9316481,2.55383429 31.4633158,3.51906187 C34.0181947,4.49503091 36.2922812,5.97945569 38.2707757,7.96123781 C39.168058,8.86001116 39.1602811,10.3180085 38.253462,11.2071588 L38.253462,11.2071588 L35.2902228,14.1126612 C34.3782253,15.006889 32.9102875,14.9798846 32.0317968,14.0527186 C30.9265301,12.8862115 29.6070538,11.9650146 28.0557915,11.2816671 C26.5338099,10.612131 24.7267986,10.2702103 22.6131718,10.2702103 C20.4454329,10.2702103 18.5435659,10.6590901 16.8833872,11.4286075 C15.1900514,12.2115316 13.7721099,13.2502677 12.6102473,14.5519886 C11.4391212,15.8632706 10.5360105,17.3950517 9.90288127,19.1518317 C9.26237731,20.9249466 8.94179736,22.7940582 8.94179736,24.7644799 C8.94179736,26.734824 9.26215928,28.6015138 9.9040246,30.3773845 C10.5349156,32.131987 11.436627,33.6616449 12.6107184,34.9792486 C13.7684146,36.2763016 15.1850909,37.312382 16.8843585,38.0990521 C18.5487928,38.8695598 20.4522106,39.2604991 22.6131718,39.2604991 C24.4276841,39.2604991 26.1581629,39.0389413 27.8099679,38.5975559 C28.9581721,38.2901827 30.0168302,37.911148 30.9861994,37.462135 L30.9861994,37.462135 L31.0781448,37.418112 L31.0781448,28.0921608 L24.0962494,28.0922191 C22.8737273,28.0922191 21.8754438,27.1321395 21.814245,25.9248262 L21.814245,25.9248262 L21.8112718,25.8072415 L21.8112718,22.1861527 C21.8112718,20.9241944 22.8342911,19.9011751 24.0962494,19.9011751 L24.0962494,19.9011751 L37.3127278,19.9011751 C38.574686,19.9011751 39.5977054,20.9241944 39.5977054,22.1861527 L39.5977054,22.1861527 L39.596811,26.7252147 C39.7547214,26.1719274 39.9427044,25.6307699 40.1608478,25.1022801 C40.9512006,23.1795425 42.0594797,21.5009871 43.4827596,20.0777076 C44.905354,18.653736 46.5965149,17.5441804 48.5405102,16.7529409 C50.4884878,15.9617455 52.5999184,15.5678825 54.8596994,15.5678825 C57.1521207,15.5678825 59.2803741,15.9612275 61.2309211,16.7534669 C63.1726276,17.5434983 64.8643419,18.6521769 66.2937956,20.0788787 C67.712603,21.5011181 68.8192275,23.1774272 69.6153751,25.1043187 C70.4049943,27.0305522 70.7985554,29.1183296 70.7985554,31.3428593 C70.7985554,33.5723782 70.4056937,35.6562758 69.612956,37.5907772 C68.8189715,39.5124102 67.711916,41.1885145 66.291845,42.6099592 C64.8669879,44.0348163 63.1754727,45.1438799 61.2296271,45.9362769 C59.2835941,46.7266824 57.1562316,47.1178361 54.8596994,47.1178361 C52.5958709,47.1178361 50.4852335,46.7261505 48.5383201,45.935386 C46.5936734,45.1431984 44.9027198,44.0332629 43.484712,42.6111293 C42.0601675,41.1886473 40.9514551,39.5102945 40.162011,37.5897623 C39.9433364,37.0597956 39.7550209,36.5178441 39.5969093,35.9640733 L39.5977054,41.2153855 C39.5977054,42.0283196 39.1657916,42.7800385 38.4634744,43.1894434 C36.0848331,44.5760358 33.4854073,45.6336191 30.6708411,46.3620645 C27.8712565,47.0839739 25.1849848,47.4480439 22.6131718,47.4480439 C19.4324706,47.4480439 16.4566832,46.8786191 13.7086757,45.7381054 C10.9718476,44.6071419 8.57843858,43.021325 6.55029353,40.9944865 C4.52518977,38.9719916 2.94129825,36.5686715 1.80445011,33.8062681 C0.662471193,31.0415112 0.09581976,28.0227105 0.09581976,24.7644799 C0.09581976,21.5077045 0.662178687,18.4903005 1.80332997,15.7236589 C2.93976463,12.9622653 4.52221994,10.5621021 6.54977259,8.53324415 C8.57379911,6.51052177 10.9646054,4.92708113 13.7062956,3.78892352 C16.4578746,2.64823109 19.4334742,2.07916632 22.6131718,2.07916632 Z M54.8596994,23.4288353 C53.6715156,23.4288353 52.645181,23.6317633 51.7604049,24.0257652 C50.8590791,24.4289085 50.1151813,24.9630858 49.5142651,25.6288034 C48.8870767,26.3289414 48.3958063,27.1570925 48.0374868,28.1292155 C47.6748769,29.1149601 47.4921338,30.1821469 47.4921338,31.3428593 C47.4921338,32.5068639 47.6748197,33.5738332 48.0379317,34.5577136 C48.3973456,35.5364747 48.8875424,36.3634862 49.5148025,37.0575154 C50.1171592,37.7304106 50.8565929,38.2621334 51.7552819,38.6623351 C52.6446943,39.0575326 53.6717613,39.2603825 54.8596994,39.2603825 C56.044317,39.2603825 57.0723803,39.0572697 57.9579675,38.6637749 C58.8654843,38.2588484 59.6223055,37.7197847 60.255301,37.0293628 C60.8850859,36.3489857 61.3778414,35.529424 61.7357544,34.5559925 C62.0971765,33.5741983 62.279753,32.5065046 62.279753,31.3428593 C62.279753,30.1825078 62.0971202,29.1146017 61.7364086,28.1315009 C61.3793619,27.1640635 60.8854933,26.3433164 60.2542695,25.6552407 C59.6242036,24.9736518 58.8629136,24.4321708 57.9594914,24.0272886 C57.0718924,23.6320262 56.0445624,23.4288353 54.8596994,23.4288353 Z" id="Combined-Shape" fill="#69D7C7"></path>
                <path d="M195.119299,0.43325928 C196.341822,0.43325928 197.340105,1.39333893 197.401304,2.60065224 L197.404277,2.71823688 L197.404277,44.1755921 C197.404277,45.3981142 196.444197,46.3963976 195.236884,46.4575965 L195.119299,46.4605697 L191.498211,46.4605697 C190.553385,46.4605697 189.742496,45.8871177 189.394609,45.0692777 L189.351885,44.961244 L189.332381,44.903484 L189.09608,45.0472988 C188.874892,45.1777267 188.651214,45.3020022 188.425205,45.4200636 L188.084463,45.5924873 L187.740344,45.7555437 C186.704944,46.2336324 185.625324,46.5828958 184.508621,46.8028723 C183.440601,47.0120652 182.404183,47.1178361 181.410017,47.1178361 C179.109164,47.1178361 176.979082,46.7264309 175.036862,45.9359132 C173.089709,45.1440939 171.398033,44.0342481 169.97709,42.6091777 C168.555066,41.1857779 167.446178,39.5079378 166.655286,37.587201 L166.647307,37.5659056 C166.643926,37.5741988 166.640537,37.5824894 166.637141,37.5907772 C165.841623,39.516121 164.735484,41.1918761 163.31681,42.6091789 C161.892703,44.0346615 160.20197,45.143888 158.256662,45.9360667 C156.311265,46.7267676 154.18369,47.1178361 151.883884,47.1178361 C149.6203,47.1178361 147.511258,46.726227 145.565356,45.9355972 C143.619698,45.1435532 141.928064,44.0337356 140.506554,42.6087866 C139.314526,41.4150275 138.342957,40.0437599 137.599258,38.5081032 C136.850515,40.0502621 135.880881,41.419335 134.691407,42.6099592 C133.26734,44.034026 131.576403,45.1431614 129.631522,45.9362769 C127.684721,46.7269944 125.55838,47.1178361 123.258095,47.1178361 C120.994731,47.1178361 118.883812,46.7259098 116.94151,45.9359132 C114.99594,45.1447373 113.305508,44.0355955 111.880765,42.6087866 C110.458986,41.1849431 109.350295,39.5068821 108.561573,37.5897623 C108.433955,37.2804733 108.316714,36.9670538 108.209812,36.6495296 L108.21136,41.2153855 C108.21136,42.0283196 107.779447,42.7800385 107.077129,43.1894434 C104.700916,44.5746203 102.099858,45.6327396 99.2849473,46.3622488 C96.4809835,47.084321 93.7980568,47.4480439 91.2279931,47.4480439 C88.0453133,47.4480439 85.0705065,46.8787448 82.3238493,45.738251 C79.5848543,44.6069269 77.1901367,43.0206754 75.1639485,40.9944865 C73.1361899,38.9693402 71.5506456,36.5645027 70.4179302,33.8058447 C69.2751307,31.0375282 68.7065587,28.0179696 68.7065587,24.7644799 C68.7065587,21.5124442 69.2748342,18.4942987 70.4162874,15.7253557 C71.5491246,12.9664117 73.1332035,10.5647752 75.1629068,8.53376476 C77.1855098,6.51116174 79.577605,4.92729935 82.3207638,3.78906994 C85.0716981,2.6481055 88.0463169,2.07916632 91.2279931,2.07916632 C94.5915897,2.07916632 97.5451018,2.55386949 100.080412,3.51948568 C102.630477,4.49513399 104.902584,5.97880642 106.883673,7.95989596 C107.782164,8.85838674 107.775059,10.3173038 106.867861,11.2070014 L106.867861,11.2070014 L103.905205,14.1125038 C102.993232,15.0068831 101.525169,14.9799485 100.646618,14.0527186 C99.5428612,12.8878049 98.221479,11.9657906 96.6694464,11.2816671 C95.1475542,10.6121703 93.3405838,10.2702103 91.2279931,10.2702103 C89.0599278,10.2702103 87.1569507,10.6592153 85.4970422,11.4286075 C83.8047932,12.2110291 82.3873974,13.2495464 81.2239022,14.5519886 C80.0527762,15.8632706 79.1496655,17.3950517 78.516931,19.150738 C77.8767094,20.925898 77.5560355,22.795557 77.5560355,24.7644799 C77.5560355,26.7333263 77.8764911,28.6005621 78.5176796,30.3773845 C79.1485705,32.131987 80.050282,33.6616449 81.2237304,34.9785285 C82.3836899,36.2770128 83.7998387,37.3128879 85.4980135,38.0990521 C87.1621742,38.8694332 89.0667066,39.2604991 91.2279931,39.2604991 C93.0403676,39.2604991 94.7709475,39.0388949 96.422925,38.5977428 C97.5722913,38.289669 98.6322264,37.9100982 99.6002755,37.4615778 L99.6002755,37.4615778 L99.6898752,37.4186952 L99.6898752,28.0921608 L92.7075715,28.0922191 C91.4850494,28.0922191 90.486766,27.1321395 90.4255671,25.9248262 L90.4255671,25.9248262 L90.4225939,25.8072415 L90.4225939,22.1861527 C90.4225939,20.9241944 91.4456132,19.9011751 92.7075715,19.9011751 L92.7075715,19.9011751 L105.926383,19.9011751 C107.188341,19.9011751 108.21136,20.9241944 108.21136,22.1861527 L108.21136,22.1861527 L108.210186,26.0382659 C108.316758,25.7217926 108.433578,25.4095516 108.560673,25.1016396 C109.350039,23.1829589 110.458293,21.5047006 111.882328,20.0765352 C113.308156,18.6513963 114.998775,17.5426472 116.94137,16.7533615 C118.887053,15.9619897 120.998778,15.5678825 123.258095,15.5678825 C125.554267,15.5678825 127.681495,15.9609132 129.633854,16.7538894 C131.573554,17.5442136 133.264696,18.6529672 134.693358,20.0788787 C135.881257,21.2696509 136.85009,22.6383012 137.599935,24.1813691 C138.344254,22.6436076 139.315081,21.2730315 140.507335,20.0773165 C141.9307,18.6532633 143.622539,17.5438265 145.566769,16.7530459 C147.514515,15.9616676 149.624344,15.5678825 151.883884,15.5678825 C154.179576,15.5678825 156.308049,15.9611432 158.257438,16.7534669 C160.199129,17.5434917 161.890058,18.6523317 163.31642,20.0773158 C164.736165,21.4977468 165.841877,23.1737124 166.63956,25.1043187 L166.646739,25.1228455 C166.649722,25.1155612 166.652711,25.1082791 166.655705,25.1009993 C167.445921,23.1819026 168.554374,21.5038642 169.97709,20.0777076 C171.400669,18.6527508 173.092546,17.543289 175.036203,16.7535724 C176.982278,15.961486 179.113282,15.5678825 181.410017,15.5678825 C182.399459,15.5678825 183.435753,15.676025 184.508328,15.8874544 C185.617288,16.1045156 186.695877,16.4520553 187.740783,16.9303776 C188.08887,17.0911938 188.431093,17.2654341 188.767,17.4529181 L189.100785,17.64481 L189.212825,17.7135336 L189.213233,2.71823688 C189.213233,1.53515099 190.112371,0.56207005 191.264585,0.445056362 L191.380626,0.436232479 L191.498211,0.43325928 L195.119299,0.43325928 Z M123.256346,22.9926017 C122.00732,22.9926017 120.922823,23.2073793 119.986994,23.6236337 C119.030181,24.05269 118.244114,24.616869 117.607499,25.3255189 C116.949794,26.0562026 116.431022,26.9304554 116.051399,27.9583384 C115.670131,28.9965458 115.477624,30.1219815 115.477624,31.3428593 C115.477624,32.5687739 115.670269,33.6963129 116.04995,34.7269446 C116.431022,35.7587624 116.949794,36.6330152 117.609928,37.3664018 C118.246362,38.0757196 119.032497,38.6409319 119.981529,39.0660582 C120.918543,39.4832909 122.001969,39.6966161 123.256346,39.6966161 C124.51135,39.6966161 125.594803,39.4832633 126.525349,39.0681335 C127.486223,38.6377087 128.289008,38.0660135 128.952387,37.3438973 C129.621701,36.6176204 130.14297,35.751272 130.520195,34.7261319 C130.901152,33.6958275 131.09397,32.5693431 131.09397,31.3428593 C131.09397,30.121411 130.901288,28.9970198 130.518956,27.9597261 C130.14297,26.9379457 129.621701,26.0715973 128.950889,25.3436927 C128.291322,24.6266011 127.488592,24.0559398 126.529355,23.6257904 C125.590538,23.2074091 124.506003,22.9926017 123.256346,22.9926017 Z M151.882134,22.9926017 C150.632218,22.9926017 149.548112,23.2072795 148.611617,23.6236337 C147.655805,24.0522406 146.870098,24.6163184 146.232121,25.3255189 C145.574281,26.0563531 145.055979,26.9301954 144.676563,27.9600388 C144.29553,28.9950688 144.103413,30.1196027 144.103413,31.3428593 C144.103413,32.5711508 144.295665,33.6977712 144.676365,34.7286423 C145.055979,35.7590223 145.574281,36.6328647 146.233517,37.3652503 C146.872352,38.0762751 147.658117,38.6413789 148.605788,39.065896 C149.543826,39.483389 150.626866,39.6966161 151.882134,39.6966161 C153.137413,39.6966161 154.221431,39.4831521 155.151435,39.0674784 C156.11219,38.6379164 156.914313,38.0668499 157.578316,37.3450118 C158.247456,36.6179568 158.768848,35.7510314 159.145355,34.727835 C159.52589,33.6961522 159.718593,32.5689642 159.718593,31.3428593 C159.718593,30.1217908 159.526027,28.9967027 159.144745,27.9597261 C158.768848,26.9381864 158.247456,26.071261 157.57887,25.3448074 C156.916633,24.6257693 156.114548,24.0557245 155.152515,23.6251379 C154.217182,23.2075236 153.13207,22.9926017 151.882134,22.9926017 Z M181.410017,23.4288353 C180.222886,23.4288353 179.194925,23.6320189 178.312632,24.0249099 C177.403516,24.4325372 176.641247,24.9744806 176.01781,25.6488746 C175.380611,26.3434398 174.887231,27.1637437 174.532468,28.1274444 C174.170929,29.1127873 173.988797,30.1804949 173.988797,31.3428593 C173.988797,32.5085156 174.170872,33.5760042 174.532587,34.5585991 C174.888746,35.5297361 175.381022,36.3488676 176.018343,37.0374251 C176.643161,37.7189652 177.400949,38.2584856 178.305599,38.6623351 C179.194437,39.0572771 180.223132,39.2603825 181.410017,39.2603825 C182.569206,39.2603825 183.630727,39.0534672 184.610077,38.6434442 C185.603007,38.2268175 186.439289,37.6712397 187.144618,36.9632314 C187.84036,36.2697126 188.385755,35.444373 188.784008,34.4726603 C189.179444,33.5157875 189.378279,32.4777176 189.378279,31.3428593 C189.378279,30.2112631 189.179364,29.1728908 188.782608,28.2096628 C188.387562,27.2493627 187.840959,26.4228648 187.145649,25.7235146 C186.441004,25.0220151 185.600202,24.4642226 184.610077,24.0469399 C183.630334,23.635846 182.569489,23.4288353 181.410017,23.4288353 Z M192.835084,36.6188994 C192.735629,36.8397033 192.630496,37.0563776 192.519745,37.2688221 L192.349415,37.5843037 L192.258797,37.7418999 C192.39703,37.7906801 192.529164,37.852382 192.653749,37.9255549 L192.775763,38.0024976 L192.833914,38.0438856 L192.835084,36.6188994 Z M192.833914,24.6425328 L192.775763,24.6843874 C192.616145,24.7922232 192.442169,24.8804204 192.257302,24.9455119 C192.46758,25.3060276 192.660132,25.6807096 192.834999,26.0678014 L192.833914,24.6425328 Z" id="Combined-Shape" fill="#FED433"></path>
            </g>
        </g>
    </g>
</svg>