<?xml version="1.0" encoding="UTF-8"?>
<svg width="112px" height="139px" viewBox="0 0 112 139" version="1.1" xmlns="http://www.w3.org/2000/svg" xmlns:xlink="http://www.w3.org/1999/xlink">
    <title>772AFA77-76CB-4183-8CBA-9DBA5F186835@1x</title>
    <defs>
        <polygon id="path-1" points="0.106494455 0.108517212 3.05899768 0.108517212 3.05899768 4.84785 0.106494455 4.84785"></polygon>
        <polygon id="path-3" points="0.106494455 0.108517212 3.05899768 0.108517212 3.05899768 4.84785 0.106494455 4.84785"></polygon>
        <polygon id="path-5" points="0 0.212447763 13.981095 0.212447763 13.981095 27.31087 0 27.31087"></polygon>
        <path d="M73.3773684,50.4734377 C74.9047404,31.7585821 66.7220484,15.3884101 54.9521868,6.86529128 L52.363794,5.15884808 C47.5250412,2.25061688 42.201264,0.61551488 36.76449,0.61551488 C30.0028764,0.61551488 23.456244,3.13017248 17.7910824,7.48390088 L15.6336096,9.26264288 C5.54385724,18.2545069 -1.11912356,33.3831505 0.15209044,50.4734377 C0.39947044,53.7953521 1.46607724,58.5819157 3.35191084,64.8331285 L6.86343004,72.6586357 C9.44128924,77.5213285 14.078148,83.6292205 20.7740064,90.9823117 L23.0042568,93.0018901 C28.4103876,97.6443349 33.5297172,100.332797 36.76449,100.332797 C40.5747804,100.332797 46.3582056,97.4647849 52.2187176,92.3119393 L54.0199632,90.6500245 C61.0398096,82.6336357 65.7859944,75.8476033 68.2585176,70.2919273 L70.6692756,64.0038469 C72.2142036,58.1644021 73.1169012,53.6542657 73.3773684,50.4734377 Z" id="path-7"></path>
        <polygon id="path-9" points="0.0441065158 0.0480480201 1.87454 0.0480480201 1.87454 1.75022199 0.0441065158 1.75022199"></polygon>
        <polygon id="path-11" points="0 0.06802 1.83048098 0.06802 1.83048098 1.77020999 0 1.77020999"></polygon>
    </defs>
    <g id="Screens" stroke="none" stroke-width="1" fill="none" fill-rule="evenodd">
        <g id="Splash" transform="translate(-122.000000, -142.000000)">
            <g id="Moster_Hi" transform="translate(122.400000, 142.775000)">
                <path d="M105.368794,131.750406 C105.368794,134.764676 86.4427666,137.212522 63.0949501,137.212522 C39.7467483,137.212522 20.8187941,134.764676 20.8187941,131.750406 C20.8187941,128.733062 39.7467483,126.287522 63.0949501,126.287522 C86.4427666,126.287522 105.368794,128.733062 105.368794,131.750406" id="Fill-1" fill="#000000" opacity="0.08"></path>
                <g id="Group-22" transform="translate(87.067500, 72.042522)">
                    <path d="M7.0768712,33.0842537 C6.23172935,32.9736958 5.32437342,34.3310938 5.20789036,35.5243382 C5.1258809,36.3651708 5.39534056,37.5461609 6.03862332,37.704928 C6.6664199,37.8597899 7.3602011,36.9694015 7.59599513,36.6665455 C7.85400848,36.3354104 8.30189596,35.7606709 8.27092358,34.9532345 C8.24048986,34.1549552 7.74358523,33.171515 7.0768712,33.0842537" id="Fill-11" fill="#69D7C7"></path>
                    <g id="Group-15" transform="translate(9.660075, 34.511932)">
                        <mask id="mask-2" fill="white">
                            <use xlink:href="#path-1"></use>
                        </mask>
                        <g id="Clip-14"></g>
                        <path d="M1.4006516,0.112133464 C0.552412508,0.195624214 -0.02434698,1.72296629 0.132130845,2.91176684 C0.242419433,3.74936759 0.772047045,4.83865255 1.43458654,4.8478096 C2.08123587,4.85669733 2.5555172,3.83245435 2.71670821,3.48408246 C2.89311608,3.10312225 3.19920395,2.44192938 2.98657186,1.66250283 C2.7763637,0.891829339 2.06992422,0.0462835013 1.4006516,0.112133464" id="Fill-13" fill="#69D7C7" mask="url(#mask-2)"></path>
                    </g>
                    <path d="M14.4267639,34.5190557 C13.8329023,35.1305581 14.3788241,36.6692118 15.2657113,37.4759748 C15.8908146,38.0443853 16.998683,38.5341528 17.5104005,38.1133325 C18.0098637,37.7026118 17.7107783,36.6142695 17.6089734,36.2440823 C17.4977422,35.8392868 17.3045015,35.1367526 16.6388648,34.6789001 C15.9806345,34.2261647 14.8952547,34.0366946 14.4267639,34.5190557" id="Fill-16" fill="#69D7C7"></path>
                    <path d="M17.8285676,32.0433799 C17.4987791,32.8294049 18.568538,34.0627787 19.6887954,34.4900628 C20.4783216,34.7911682 21.6883988,34.8428786 22.0113195,34.2642338 C22.3264298,33.699594 21.6506933,32.7954699 21.4208244,32.4879008 C21.1695442,32.1517832 20.7331031,31.5681559 19.9464047,31.3848802 C19.1681901,31.2036245 18.0886009,31.4233937 17.8285676,32.0433799" id="Fill-18" fill="#69D7C7"></path>
                    <path d="M1.10648806,0.27302183 C1.73522727,-0.08194852 3.10757281,0.23531633 10.9186711,8.52769842 C18.1337532,16.1874361 19.6003625,18.7166672 20.5751843,21.4550291 C21.9663826,25.3623962 21.6783395,27.791169 21.5097421,28.7751479 C21.3775035,29.5468987 20.5866306,33.8333408 16.8372227,36.0954014 C16.3031512,36.4176488 14.9054891,37.2389554 12.9434565,37.3414335 C9.32305516,37.5306344 6.80917561,35.1141158 6.24628636,34.5380296 C5.51924352,33.79375 5.06812415,33.091889 4.8445844,32.6689141 C2.66682245,28.5497229 2.90557906,22.6576999 2.0409124,16.3152308 C1.73064875,14.0386266 1.05733625,10.0845316 0.639209186,4.16678802 C0.472900999,1.81194488 0.452701624,0.642266405 1.10648806,0.27302183" id="Fill-20" fill="#30BDA9"></path>
                </g>
                <g id="Group-22-Copy" transform="translate(21.880600, 85.745133) scale(-1, -1) rotate(-36.000000) translate(-21.880600, -85.745133) translate(10.380600, 65.745133)">
                    <path d="M7.0768712,33.0842537 C6.23172935,32.9736958 5.32437342,34.3310938 5.20789036,35.5243382 C5.1258809,36.3651708 5.39534056,37.5461609 6.03862332,37.704928 C6.6664199,37.8597899 7.3602011,36.9694015 7.59599513,36.6665455 C7.85400848,36.3354104 8.30189596,35.7606709 8.27092358,34.9532345 C8.24048986,34.1549552 7.74358523,33.171515 7.0768712,33.0842537" id="Fill-11" fill="#69D7C7"></path>
                    <g id="Group-15" transform="translate(9.660075, 34.511932)">
                        <mask id="mask-4" fill="white">
                            <use xlink:href="#path-3"></use>
                        </mask>
                        <g id="Clip-14"></g>
                        <path d="M1.4006516,0.112133464 C0.552412508,0.195624214 -0.02434698,1.72296629 0.132130845,2.91176684 C0.242419433,3.74936759 0.772047045,4.83865255 1.43458654,4.8478096 C2.08123587,4.85669733 2.5555172,3.83245435 2.71670821,3.48408246 C2.89311608,3.10312225 3.19920395,2.44192938 2.98657186,1.66250283 C2.7763637,0.891829339 2.06992422,0.0462835013 1.4006516,0.112133464" id="Fill-13" fill="#69D7C7" mask="url(#mask-4)"></path>
                    </g>
                    <path d="M14.4267639,34.5190557 C13.8329023,35.1305581 14.3788241,36.6692118 15.2657113,37.4759748 C15.8908146,38.0443853 16.998683,38.5341528 17.5104005,38.1133325 C18.0098637,37.7026118 17.7107783,36.6142695 17.6089734,36.2440823 C17.4977422,35.8392868 17.3045015,35.1367526 16.6388648,34.6789001 C15.9806345,34.2261647 14.8952547,34.0366946 14.4267639,34.5190557" id="Fill-16" fill="#69D7C7"></path>
                    <path d="M17.8285676,32.0433799 C17.4987791,32.8294049 18.568538,34.0627787 19.6887954,34.4900628 C20.4783216,34.7911682 21.6883988,34.8428786 22.0113195,34.2642338 C22.3264298,33.699594 21.6506933,32.7954699 21.4208244,32.4879008 C21.1695442,32.1517832 20.7331031,31.5681559 19.9464047,31.3848802 C19.1681901,31.2036245 18.0886009,31.4233937 17.8285676,32.0433799" id="Fill-18" fill="#69D7C7"></path>
                    <path d="M1.10648806,0.27302183 C1.73522727,-0.08194852 3.10757281,0.23531633 10.9186711,8.52769842 C18.1337532,16.1874361 19.6003625,18.7166672 20.5751843,21.4550291 C21.9663826,25.3623962 21.6783395,27.791169 21.5097421,28.7751479 C21.3775035,29.5468987 20.5866306,33.8333408 16.8372227,36.0954014 C16.3031512,36.4176488 14.9054891,37.2389554 12.9434565,37.3414335 C9.32305516,37.5306344 6.80917561,35.1141158 6.24628636,34.5380296 C5.51924352,33.79375 5.06812415,33.091889 4.8445844,32.6689141 C2.66682245,28.5497229 2.90557906,22.6576999 2.0409124,16.3152308 C1.73064875,14.0386266 1.05733625,10.0845316 0.639209186,4.16678802 C0.472900999,1.81194488 0.452701624,0.642266405 1.10648806,0.27302183" id="Fill-20" fill="#30BDA9"></path>
                </g>
                <g id="Group-7" transform="translate(42.940000, 103.250022)">
                    <g id="Group-5" transform="translate(0.203794, 0.189961)" fill="#30BDA9">
                        <path d="M38.8152974,24.563885 C37.4531874,22.018265 32.6513174,21.533385 29.9821974,21.267385 C29.4855374,21.218175 28.9202874,21.186635 28.7302874,21.170675 L28.7302874,0.665685011 C28.5402874,0.550355011 28.0994874,0.0681350111 27.3451874,0.00638501112 C26.3942374,-0.0713249889 25.7393074,0.584365011 25.6634974,0.667015011 C25.5219474,8.24459501 25.3634874,15.822555 25.2219374,23.400325 C25.2141474,23.535225 25.2042674,23.663475 25.2065474,23.780705 C25.2038874,23.913705 25.1972374,24.046705 25.1947674,24.179895 C25.2065474,24.212575 25.2183274,24.244115 25.2320074,24.275845 C25.2388474,24.336835 25.2437874,24.379395 25.2466374,24.398965 C25.2990774,24.751985 25.3860974,25.342695 25.7955474,25.882295 C26.7246474,27.107605 28.4969674,26.997405 28.7071074,26.981065 C32.7801374,27.227685 35.4612274,27.037875 36.9475974,26.871245 C37.6342574,26.794105 38.7322674,26.640205 39.0351274,25.937395 C39.2604674,25.414705 38.9488674,24.813165 38.8152974,24.563885" id="Fill-1"></path>
                        <path d="M14.577515,0.812232011 C14.590625,3.92101201 14.607725,8.31115201 14.618745,11.420122 C14.629005,14.401412 14.642685,18.771602 14.650665,21.752892 C14.649905,21.759162 14.648955,21.765432 14.648195,21.771702 C14.664535,22.108762 14.688855,22.625562 14.714885,23.263582 C14.754215,24.229732 14.763335,24.630442 14.641545,25.168142 C14.641545,25.168142 14.559465,25.530852 14.440145,25.827442 C13.705225,27.653722 6.17438498,27.163522 2.90315498,26.651472 C2.37039498,26.568062 1.31266498,26.384142 0.907014981,25.607612 C0.730124981,25.097272 0.730504981,24.682502 0.815434981,24.344112 C1.34268498,22.242332 5.62775498,21.101952 11.418575,21.267442 C11.455055,14.436752 11.491725,7.60625201 11.528395,0.775562011 C12.058875,0.168322011 12.839395,-0.105847989 13.542775,0.0797820111 C14.126265,0.233682011 14.461995,0.652252011 14.577515,0.812232011" id="Fill-4"></path>
                    </g>
                    <mask id="mask-6" fill="white">
                        <use xlink:href="#path-5"></use>
                    </mask>
                    <g id="Clip-5"></g>
                </g>
                <g id="Group-16" transform="translate(26.315000, 20.130091)">
                    <g id="2" transform="translate(0.000000, 0.279931)">
                        <mask id="mask-8" fill="white">
                            <use xlink:href="#path-7"></use>
                        </mask>
                        <use id="Mask" fill="#69D7C7" xlink:href="#path-7"></use>
                        <g id="Group-14" mask="url(#mask-8)">
                            <g transform="translate(25.141294, 80.892500)">
                                <path d="M21.362118,0.8082334 C18.3866895,3.1308504 14.871205,4.3595614 11.0953065,4.4095124 C7.388169,4.4587319 4.154312,2.8613449 1.341172,0.5538804 C1.0244325,0.2939889 0.5677675,0.7454289 0.8873285,1.0076194 C3.8331835,3.4239729 7.211355,5.1027654 11.0953065,5.0513514 C15.0546025,4.9988924 18.700712,3.6936874 21.8159615,1.2619724 C22.1411655,1.0081419 21.6840825,0.5569109 21.362118,0.8082334" id="Fill-5" fill="#171F20"></path>
                                <g id="Group-10" stroke-width="1" fill="none" transform="translate(20.140000, 0.406980)">
                                    <mask id="mask-10" fill="white">
                                        <use xlink:href="#path-9"></use>
                                    </mask>
                                    <g id="Clip-9"></g>
                                    <path d="M1.8239715,1.1705615 C1.7270715,0.9743865 1.4962215,0.8916415 1.3182865,0.7846715 C0.9720115,0.5764315 0.5906815,0.3737015 0.3011215,0.0876565 C0.2166665,0.0042465 0.0296115,0.0586815 0.0450015,0.1937715 C0.0907915,0.5946715 0.2775615,0.9477865 0.5577165,1.2373465 C0.8202965,1.5086665 1.3431765,1.9414865 1.7269765,1.6571515 C1.8900915,1.5361215 1.9109915,1.3466915 1.8239715,1.1705615" id="Fill-8" fill="#171F20" mask="url(#mask-10)"></path>
                                </g>
                                <g id="Group-13" stroke-width="1" fill="none" transform="translate(0.950000, 0.026980)">
                                    <mask id="mask-12" fill="white">
                                        <use xlink:href="#path-11"></use>
                                    </mask>
                                    <g id="Clip-12"></g>
                                    <path d="M0.050521,1.1905495 C0.147516,0.9943745 0.378366,0.9116295 0.556301,0.8046595 C0.902576,0.5964195 1.283811,0.3936895 1.573466,0.1076445 C1.657921,0.0242345 1.844976,0.0785745 1.829586,0.2137595 C1.783796,0.6146595 1.597026,0.9677745 1.316871,1.2573345 C1.054291,1.5286545 0.531411,1.9614745 0.147611,1.6771395 C-0.015504,1.5561095 -0.036499,1.3665845 0.050521,1.1905495" id="Fill-11" fill="#171F20" mask="url(#mask-12)"></path>
                                </g>
                            </g>
                        </g>
                    </g>
                    <path d="M50.3737716,27.1886866 C55.2231098,27.6598653 60.8247104,32.0952667 61.5111874,40.5957053 L61.5111874,43.4266218 C60.8746904,51.5656668 54.7314265,61.5992515 36.7749495,74.1899308 C18.8287247,61.5992515 12.6828978,51.5656668 12.0464008,43.4266218 L12.0464008,40.5957053 C12.7260429,32.0952667 18.3344784,27.6598653 23.1786904,27.1886866 C23.9706806,27.1100856 24.7190985,27.0699308 25.4154006,27.0699308 C31.014011,27.0699308 33.7005409,31.3857221 36.7749495,35.0492108 C39.8502124,31.3857221 42.5393054,27.0699308 48.1353527,27.0699308 C48.8312276,27.0699308 49.5796455,27.1100856 50.3737716,27.1886866 Z" id="Fill-4" fill="#FFFFFF"></path>
                    <g id="Group-6" transform="translate(28.704668, 42.079931)">
                        <path d="M0.578626,10.566489 C1.659536,13.361959 4.348226,15.682999 7.720536,15.840509 C10.544696,15.972369 13.489506,14.570169 14.972456,11.884899 C16.696896,8.762439 15.837716,5.004049 13.763866,2.765279 C10.628866,-0.618811 4.579646,-0.680371 1.677396,2.655459 C-0.263074,4.885679 -0.361874,8.134489 0.578626,10.566489" id="Fill-1" fill="#69D7C7"></path>
                        <path d="M6.676809,5.786906 C7.724659,5.379736 8.725199,5.900526 8.929069,6.006546 C10.124549,6.628796 11.289439,8.244746 10.687139,9.687416 C10.068689,11.169416 7.999589,11.477976 6.676809,10.951106 C6.494979,10.878716 5.549539,10.502136 5.138379,9.522686 C4.568949,8.166086 5.304249,6.320236 6.676809,5.786906" id="Fill-4" fill="#000100"></path>
                    </g>
                    <path d="M42.0422546,44.1049911 C42.0422546,45.1660119 41.181851,46.0268943 40.1232242,46.0268943 C39.0626822,46.0268943 38.1979694,45.1660119 38.1979694,44.1049911 C38.1979694,43.0434915 39.0626822,42.1811727 40.1232242,42.1811727 C41.181851,42.1811727 42.0422546,43.0434915 42.0422546,44.1049911" id="Fill-8" fill="#FFFFFF"></path>
                </g>
                <path d="M62.3228343,24.0761992 C61.8016073,23.0962552 60.9405653,21.7393892 59.5540403,20.4612592 C56.9286203,18.0411912 54.2771323,17.6158572 54.4008223,17.0770742 C54.5171973,16.5699452 57.0277053,16.2409032 59.0156563,17.3847032 C61.2078953,18.6460752 61.7014583,21.0864922 61.7844503,21.5380272 C61.8303353,21.7872692 61.6128803,20.0268812 61.7844503,18.0769682 C61.8215573,17.6550922 62.2071243,13.6955492 64.0634053,13.1978632 C64.7252133,13.0204412 65.5686993,13.2844462 65.7938683,13.7746842 C66.0586713,14.3513722 65.4174783,15.1316832 64.9862923,15.7359022 C64.2367043,16.7867352 63.3545153,18.3826022 62.7843443,20.7688882 C63.0976923,20.3057822 63.7254523,19.5132352 64.7841323,18.9229812 C65.0257933,18.7882522 66.8685083,17.7982002 69.0913373,18.3845972 C70.4468733,18.7422342 71.9098733,19.6772242 71.7832573,20.2305042 C71.6882953,20.6449322 70.7221833,20.7557212 69.9373503,20.8457622 C67.9963483,21.0685372 67.1587143,20.6027712 66.1685293,20.6920142 C65.2022843,20.7789962 63.8414283,21.4169972 62.3228343,24.0761992" id="Fill-1" fill="#69D7C7" transform="translate(63.093794, 18.609345) rotate(-10.000000) translate(-63.093794, -18.609345) "></path>
                <g id="Group-4" transform="translate(30.793794, 0.000000)" fill="#69D7C7">
                    <g id="Group-9" transform="translate(12.330446, 18.401794) rotate(-9.000000) translate(-12.330446, -18.401794) translate(2.830446, 1.901794)">
                        <path d="M17.6959969,32.7202226 C17.8917525,28.9068827 17.6005097,23.8362267 15.6353044,18.3425037 C14.9588344,16.451475 14.1758122,14.7664474 13.37066,13.286601 C13.7486471,12.9696765 10.4994876,14.196393 11.1061522,14.1291831 C12.4426995,16.3233392 14.2855064,19.9690642 15.1086905,24.820332 C15.6287473,27.8854841 15.599104,30.5913639 15.3974744,32.7202226 L17.6959969,32.7202226 Z" id="Fill-1"></path>
                        <path d="M13.2984027,2.88237395 C14.6203779,3.01082169 16.1474271,4.21995396 16.3345672,6.53725367 L16.3345672,7.30898818 C16.1610521,9.52776859 14.4863405,12.2630184 9.59123552,15.6953563 C4.69892545,12.2630184 3.02351508,9.52776859 2.85,7.30898818 L2.85,6.53725367 C3.03527684,4.21995396 4.56418924,3.01082169 5.88476709,2.88237395 C6.10067109,2.86094659 6.30469688,2.85 6.49451539,2.85 C8.02074937,2.85 8.75312275,4.0265254 9.59123552,5.02522696 C10.4295812,4.0265254 11.1626533,2.85 12.6881886,2.85 C12.8778906,2.85 13.0819164,2.86094659 13.2984027,2.88237395 Z" id="Fill-4" transform="translate(9.592284, 9.272678) rotate(-28.000000) translate(-9.592284, -9.272678) "></path>
                    </g>
                    <g id="Group-2" transform="translate(53.691259, 17.450476) rotate(5.000000) translate(-53.691259, -17.450476) translate(44.191259, 0.950476)">
                        <path d="M13.1020008,2.88237054 C14.4238365,3.01080471 15.9507244,4.21980931 16.1378447,6.53686435 L16.1378447,7.30851738 C15.964348,9.52706352 14.2898131,12.2620245 9.39522504,15.694 C4.50343153,12.2620245 2.82819806,9.52706352 2.6547013,7.30851738 L2.6547013,6.53686435 C2.83995857,4.21980931 4.36870955,3.01080471 5.68914797,2.88237054 C5.90502917,2.86094543 6.10903341,2.85 6.29883188,2.85 C7.82490471,2.85 8.55720077,4.02640118 9.39522504,5.02499729 C10.2334822,4.02640118 10.9664769,2.85 12.4918511,2.85 C12.6815331,2.85 12.8855374,2.86094543 13.1020008,2.88237054 Z" id="Fill-4-Copy" transform="translate(9.396273, 9.272000) scale(-1, 1) rotate(-28.000000) translate(-9.396273, -9.272000) "></path>
                        <path d="M6.27719821,12.1809395 C5.47218256,13.6606492 4.68902377,15.3458135 4.01269041,17.2367055 C1.85090986,23.279992 1.71444106,28.8115547 2.02398891,32.7205184 L4.37551436,32.7205184 C4.07771458,30.461065 3.92430671,27.3386752 4.53930424,23.7146704 C5.36235181,18.8632661 7.20529534,15.2176776 8.54184262,13.0235216" id="Fill-4"></path>
                    </g>
                </g>
            </g>
        </g>
    </g>
</svg>